<svg width="1223" height="300" viewBox="0 0 1223 300" fill="none" xmlns="http://www.w3.org/2000/svg">
<g clip-path="url(#clip0_1809_80)">
<path d="M1167.92 299.638C1153.43 299.638 1141.95 295.893 1133.5 288.402C1125.17 280.912 1121 270.644 1121 257.596C1121 242.375 1125.95 230.354 1135.86 221.535C1145.76 212.595 1159.17 208.125 1176.08 208.125C1190.69 208.125 1202.16 211.81 1210.5 219.179C1218.83 226.428 1223 236.455 1223 249.261C1223 264.603 1218.05 276.865 1208.14 286.047C1198.24 295.107 1184.83 299.638 1167.92 299.638Z" fill="#03DD4D"/>
<path d="M1010.4 298.007C977.18 298.007 951.634 290.517 933.759 275.536C916.004 260.556 907.126 240.019 907.126 213.924C907.126 190.246 912.38 169.708 922.888 152.312C933.396 134.795 947.951 121.264 966.551 111.721C985.273 102.056 1006.95 97.2236 1031.59 97.2236C1049.71 97.2236 1064.99 100.123 1077.43 105.922C1089.87 111.6 1099.29 119.15 1105.69 128.573C1112.09 137.996 1115.3 148.325 1115.3 159.561C1115.3 166.567 1113.85 173.635 1110.95 180.762C1108.05 187.89 1102.55 194.112 1094.46 199.427C1086.49 204.622 1074.83 207.944 1059.49 209.394L993.184 215.555C996.203 234.28 1011.6 243.643 1039.38 243.643C1048.93 243.643 1058.71 241.891 1068.73 238.388C1078.88 234.884 1088.42 229.75 1097.36 222.985L1101.89 225.159L1092.65 277.167C1086.73 281.637 1079.06 285.443 1069.64 288.584C1060.34 291.725 1050.43 294.08 1039.93 295.651C1029.54 297.221 1019.7 298.007 1010.4 298.007ZM996.445 177.501L996.083 180.762L1028.51 177.682C1035.64 177.078 1040.77 175.145 1043.91 171.883C1047.05 168.5 1048.62 164.635 1048.62 160.285C1048.62 153.883 1046.81 149.232 1043.19 146.332C1039.69 143.312 1035.28 141.802 1029.96 141.802C1020.66 141.802 1013.23 145.184 1007.68 151.95C1002.24 158.594 998.498 167.111 996.445 177.501Z" fill="#03DD4D"/>
<path d="M704.305 298.007C691.381 298.007 679.484 295.168 668.613 289.49C657.864 283.691 649.288 274.932 642.887 263.214C636.485 251.496 633.284 236.697 633.284 218.817C633.284 194.655 637.753 173.454 646.691 155.212C655.75 136.97 668.311 122.775 684.376 112.627C700.44 102.358 719.04 97.2236 740.177 97.2236C748.391 97.2236 756.906 98.6733 765.723 101.573C774.54 104.351 781.908 108.278 787.826 113.352L794.892 73.3036H763.549L772.426 23.8327L893.451 12.0539L853.23 240.381H878.232L868.63 294.745H776.412L768.078 270.281C759.261 279.704 749.296 286.711 738.184 291.302C727.072 295.772 715.779 298.007 704.305 298.007ZM739.453 243.643C744.646 243.643 749.961 241.71 755.396 237.844C760.831 233.978 765.421 227.757 769.165 219.179L780.036 157.567C777.379 155.514 774.117 154.003 770.252 153.037C766.387 151.95 762.703 151.406 759.201 151.406C746.76 151.406 736.977 157.144 729.85 168.621C722.845 180.098 719.342 195.38 719.342 214.468C719.342 233.918 726.046 243.643 739.453 243.643Z" fill="#03DD4D"/>
<path d="M453.835 294.745L463.437 240.381H491.157L505.832 157.205H478.112L486.809 107.734L604.028 97.0424L578.845 240.381H606.565L596.963 294.745H453.835ZM565.982 84.9012C551.005 84.9012 539.168 81.3978 530.472 74.3909C521.775 67.2632 517.427 58.0214 517.427 46.6655C517.427 32.6517 522.56 21.779 532.827 14.0473C543.093 6.31556 556.681 2.4497 573.591 2.4497C589.051 2.4497 601.009 5.83232 609.464 12.5976C617.918 19.242 622.146 28.3026 622.146 39.7794C622.146 53.9139 617.013 64.9679 606.746 72.9412C596.479 80.9145 582.891 84.9012 565.982 84.9012Z" fill="#03DD4D"/>
<path d="M289.423 294.745L299.025 240.381H326.745L356.095 73.3036H328.375L337.253 23.8327L454.654 12.0539L414.433 240.381H442.153L432.55 294.745H289.423Z" fill="#03DD4D"/>
<path d="M150.194 300C119.273 300 92.5801 294.805 70.1145 284.416C47.6489 274.026 30.3769 259.348 18.2986 240.381C6.22032 221.294 0.120783 198.642 0 172.427C0 145.003 4.2274 120.66 12.6822 99.3982C21.2578 78.136 33.0341 60.196 48.0112 45.5782C62.9883 30.9604 80.0791 19.9065 99.2836 12.4164C118.609 4.80545 138.961 1 160.339 1C180.631 1 197.299 3.77859 210.344 9.33576C223.509 14.7721 233.775 23.0475 241.143 34.1618L254.912 6.25515H304.735L286.256 111.177H219.221C219.583 94.0222 216.081 82.0622 208.713 75.297C201.466 68.4109 191.381 64.9679 178.457 64.9679C162.03 64.9679 148.201 69.6794 136.968 79.1024C125.856 88.5255 117.461 100.848 111.785 116.07C106.229 131.292 103.451 147.601 103.451 164.997C103.451 184.81 108.765 200.152 119.394 211.025C130.144 221.777 145.181 227.153 164.506 227.153C168.734 227.153 173.142 226.851 177.732 226.247C182.322 225.522 186.61 224.555 190.596 223.347L195.85 193.991H161.789L171.391 139.627H287.343L263.609 274.449C253.705 279.523 242.351 283.993 229.548 287.859C216.745 291.725 203.459 294.684 189.69 296.738C176.041 298.913 162.876 300 150.194 300Z" fill="#03DD4D"/>
</g>
<defs>
<clipPath id="clip0_1809_80">
<rect width="1222.22" height="300" fill="white"/>
</clipPath>
</defs>
</svg>
